# xmcd CD database file
#
# Track frame offsets:
#	150
#	11100
#	18035
#	23544
#	30757
#	41357
#	59402
#	61414
#	69407
#	73402
#	76945
#	85675
#	109962
#	122927
#	142657
#
# Disc length: 2038 seconds
#
# Revision: 5
# Processed by: cddbd v1.5.1PL2 Copyright (c) Steve Scherf et al.
# Submitted via: CDex 1.51
#
DISCID=b707f40f
DTITLE=Willie Nelson - Red Headed Stranger
DYEAR=1975
DGENRE=Country
TTITLE0=Time of the Preacher
TTITLE1=I Couldn't Believe It Was True
TTITLE2=Time of the Preacher Theme
TTITLE3=Medley: Blue Rock Montana - Red Headed Stranger
TTITLE4=Blue Eyes Crying in the Rain
TTITLE5=Red Headed Stranger
TTITLE6=Time of the Preacher Theme
TTITLE7=Just as I Am
TTITLE8=Denver
TTITLE9=O'er the Waves
TTITLE10=Down Yonder
TTITLE11=Can I Sleep in Your Arms
TTITLE12=Remember Me
TTITLE13=Hands on the Wheel
TTITLE14=Bandera
EXTD=YEAR: 1975
EXTT0=
EXTT1=
EXTT2=
EXTT3=
EXTT4=
EXTT5=
EXTT6=
EXTT7=
EXTT8=
EXTT9=
EXTT10=
EXTT11=
EXTT12=
EXTT13=
EXTT14=
PLAYORDER=
